<?xml version="1.0" encoding="utf-8"?>
<!-- Generator: Adobe Illustrator 21.0.2, SVG Export Plug-In . SVG Version: 6.00 Build 0)  -->
<svg version="1.1" id="Capa_1" xmlns="http://www.w3.org/2000/svg" xmlns:xlink="http://www.w3.org/1999/xlink" x="0px" y="0px"
	 viewBox="0 0 212 80" style="enable-background:new 0 0 212 80;" xml:space="preserve">
<style type="text/css">
	.st0{fill:#FFFFFF;}
</style>
<g>
	<path class="st0" d="M141.8,42.4c0-15.7,12.7-28.3,28.3-28.3s28.3,12.7,28.3,28.3c0,15.7-12.7,28.3-28.3,28.3
		S141.8,58.1,141.8,42.4 M187.6,32.4c-0.2-0.6-4.1-5.9-4.4-6.1c0-0.2-0.1-0.7,0-1.4c0-0.7-0.3-0.4-0.5-0.1c-0.2,0.3-0.5,0.9-0.5,0.9
		s-1.9-0.4-3-0.3c0,0-0.1,0.1,0,0.2c0.1,0.1,0.2,0.2,0.1,0.2s-0.8,0-0.8,0c-0.1,0.1-0.1,0.1-0.1,0.1c0.1,0.1,0.3,0.2,0.3,0.2
		s0,0.1-0.2,0.1s-0.7,0.3-0.8,0.3c-0.1,0-0.1,0.1,0,0.2l0.1,0.1c0,0,0.1,0.1-0.1,0.1s-0.3,0-0.6,0.1c0,0-1.4,1.1-2.5,2.4
		c0,0,0,0.2,0.2,0.2s0.6-0.3,0.7-0.2s-0.9,0.4-0.9,0.4l-0.4,1c-0.4-0.4-0.8-0.8-1-1.1c-1.1-1.1-2.3-2.6-2.9-3.6
		c-1-1.8-3.8-8.7-3.8-8.7c-0.2-0.3-0.4-0.2-0.4-0.2c-0.4,0.1-0.7,0.6-0.8,1.1c-0.2,0.6-0.3,2.4-0.4,2.6c0,0.3-0.3,0.1-0.3,0.1
		s-0.3-0.2-0.5-0.5c-0.2-0.2-0.4,0-0.4,0c-1.2,2.5,0.3,4.6,0.4,5c0,0.1,0.1,0.3-0.2,0.2c-0.2-0.1-0.6-0.3-0.6-0.3
		c-0.3-0.2-0.3,0.1-0.3,0.1c0,2.5,1.4,3.3,1.7,3.6c0.2,0.3-0.1,0.4-0.2,0.4c-0.3,0-0.5,0-0.5,0c-0.4,0-0.3,0.4-0.3,0.4l0.2,1
		c0.2,0.7-1.5,0.1-2-0.3c-0.9-0.6-3.3-1.9-4.4-2.6c-1-0.6-4.1-2.8-4.1-2.8c-0.8-0.5-0.8,0.4-0.8,0.4c0,1.8,1.6,3.9,1.6,3.9
		c0.2,0.2,0,0.4-0.2,0.2l-0.9-0.5c-0.1-0.1-0.2,0.1-0.2,0.1c-0.9,3.3,3.7,4.5,3.7,4.5c0.4,0.1,0.3,0.4,0,0.3c-0.3,0-1.5-0.2-2.2-0.4
		c0,0-0.2-0.1-0.2,0.1c0,2.8,4.9,3.4,4.9,3.4l1.4,0.2c0.2,0,0.3,0.3,0,0.3c-0.9,0.1-2.4-0.1-2.6-0.1c-0.2-0.1-0.1,0.2-0.1,0.2
		c0.7,1.7,3.5,2.4,3.9,2.4c0.3,0,0.2,0.2,0.1,0.2c-0.1,0.1-0.3,0.2-0.4,0.2c-0.1,0.1,0.1,0.2,0.1,0.2c1.8,1.5,3.3,1.2,3.7,1.1
		c0.4-0.1,0.4,0.3,0.4,0.3c-0.1,0.7,0.4,1,0.8,1c-1.4,0.5-3.1,1.6-4.2,3.4c0,0-0.6,1.1-1.8,0.6c-0.5-0.2-6.1-2.2-6.3,5.5
		c0,0-0.1,2.4-1,4.8c0,0-0.1,0.3,0.2,0.2c0.3-0.1,1.1-0.6,1.3-0.1c0.2,0.6,0.2,2.6,0.2,2.6s0.1,0.5,0.5,0.2s1.1-0.9,2.3-0.5
		c0,0,0.7,0.3,0.7-0.4c0,0,0-0.9,0.4-0.9c0.4-0.1,0.9,0.6,1.1,0.8c0.2,0.2,0.6-0.1,0.5-0.4s-2.6-3.8-2.5-6.4c0.1-2.5,1.5-4,3.1-3.8
		c0,0,0.4,0.2,0.3,0.5c0,0-0.5,3,2.5,5.2c0,0,1.4,1,0.7,2.2c0,0-1.1,2.2-1.2,2.5s-0.1,0.8,0.1,1.1l0.2,0.3l1.9,2.7
		c0,0,0,0.4,0.1,0.6s0.6,0.2,0.6,0.3c0.1,0.1-0.1,0.8-0.1,0.8s-0.1,0.4,0.3,0.6c0.4,0.1,1.4,0.4,1.6,0.3s0.4-0.4,0.4-0.4
		s0.4,0.1,0.4,0.2s-0.3,0.9-0.2,1c0.1,0.1,1.8,0.6,2,0.5s0.3-0.4,0.2-0.5c0-0.1-1.2-1.4-1.3-1.7c-0.2-0.4-1.6-3.7-2-4.1
		c0,0-0.4-0.7-0.3-1.1s0.5-2.2,0.5-2.2s0.2-0.3,0.3-0.6c0.2-0.3,0.9-3.8,0.9-3.8s0.2-1.6,2.1-2.2s2.9-0.7,7.5-3.8
		c0,0,0.9-0.6,1.2-0.8c0-0.1,0.4-0.2,1.3,0l2.9-0.9c0,0,1.9-0.7,2.2-0.6s0.4,0.1,0.4,0.6s-0.8,3.1-0.8,3.1s0,0.2-0.9,0.1
		c-0.2,0-0.7,0.8-0.7,0.8s0.3,1.6,0.7,1.9c0.4,0.3,0.5,0,0.6-0.1s1.4-1.9,1.3-2.1s1,0.1,1,0.1s0.1,0.1,0.3-0.5
		c0.2-0.6,0.1-0.9,0.4-1.8s0.6-1,0.6-1.5s-1-2.5-1.1-2.8s0.1-0.7,0-0.8c0,0-1.3-2.2-4-0.8c0,0-0.4,0.3-0.5-0.2s0.1-0.6-0.7-1.7
		c-0.8-1.1-1.5-5.2-1.6-5.4s-0.1-1.2,0-1.5s0.3-0.5,0.7-0.3c0.3,0.2,1.8,0.7,2.2,0.8c0.4,0,0.8,0.8,0.9,0.9c0.1,0.1,0.8,0.4,1.2,0
		c0.4-0.4,0.4-0.1,0.6-0.1C187,33.6,187.9,33,187.6,32.4"/>
	<g>
		<path class="st0" d="M43.8,36.5c-0.5-0.9-2.1-3.6-6.1-3.6c-4.4,0-8.1,3.2-8.1,9.6c0,5.6,2.7,9.5,7.4,9.5c1.1,0,2.1-0.2,3.1-0.5
			c0-1,0.1-1.9,0.1-2.9c0-1.8-0.1-3.5-0.4-5.3c1.1,0.2,2.1,0.2,3.2,0.2c1,0,1.8,0,2.9-0.2c-0.1,0.7-0.3,2.4-0.3,4
			c0,0.9,0,3.3,0.2,5.3c-3.2,0.8-6.4,1.6-9.6,1.6c-7.5,0-12.7-4.7-12.7-11.6c0-6,4-12.1,13.7-12.1c2.6,0,5.7,0.5,8.2,1.9
			c-0.8,1.7-1,3-1.2,3.9L43.8,36.5z"/>
		<path class="st0" d="M49.9,35.3c0-1.5-0.1-3-0.3-4.4c2.9,0.1,5.6,0.3,7.7,0.3c1.8,0,3.5-0.1,5.8-0.3c-0.1,0.5-0.2,1-0.2,1.5
			c0,0.6,0,1.1,0.2,1.7c-2.2-0.4-5.3-0.4-7.5-0.4c-0.1,1.2-0.1,2.3-0.1,3.5v3.4c2.7,0,4.8,0,7.4-0.4c-0.1,0.5-0.2,1.1-0.2,1.6
			s0.1,1.1,0.2,1.6c-2.4-0.3-4.3-0.3-7.4-0.3v6.6c0,0.5,0,1,0.1,1.4c1.7,0,5.2,0,7.4-0.5c-0.1,0.6-0.2,1.1-0.2,1.6
			c0,0.6,0.1,1.1,0.2,1.7c-2.1-0.2-5.2-0.3-7.5-0.3c-2.1,0-4.3,0.1-6.1,0.3c0.3-1.6,0.4-4.8,0.4-6.6L49.9,35.3z"/>
		<path class="st0" d="M72.1,42.9c0,5.4,0,6.5,0.1,8.6c0.3,0,0.6,0.1,1,0.1c2.7,0,3.8-2,3.8-4.5C77,43.7,75.2,42.9,72.1,42.9
			 M72.1,40.7c0.2,0,0.4,0,0.7,0c1.9,0,3.9-1,3.9-3.9c0-2.6-1.2-3.7-3.8-3.7c-0.2,0-0.4,0-0.7,0c0,0.4,0,2.3,0,2.7v4.9H72.1z
			 M77.2,41.6c1.3,0.2,5.6,1,5.6,5.7c0,4-3.4,6.5-8.2,6.5c-0.9,0-3.5-0.2-4.9-0.2c-1.1,0-2.2,0.1-3.3,0.2c0.2-2.7,0.3-6.3,0.3-9.2
			c0-3.2,0-6.4-0.1-9.5c-0.1-2.1-0.2-3.2-0.3-4.2c0.8,0.2,1.8,0.2,2.8,0.2c1.6,0,3.8-0.2,5.9-0.2c4,0,7.2,1.9,7.2,5.4
			c0,3.9-3.6,4.8-5.1,5.1v0.2H77.2z"/>
		<path class="st0" d="M90.1,33.8c-1.6,0-3.7,0-6.1,0.3c0.1-0.6,0.2-1.1,0.2-1.7c0-0.5-0.1-1-0.2-1.5c1.7,0.2,5,0.3,8.9,0.3
			c4.1,0,6.8-0.1,8.9-0.3c-0.1,0.6-0.2,1.1-0.2,1.6s0.1,1.2,0.2,1.6c-1.9-0.2-4.1-0.3-5.9-0.3c-0.1,1.5-0.1,3.7-0.1,6.2
			c0,1.9,0,6.1,0,8.3c0,2,0.1,3.8,0.2,5.6c-1-0.1-2.3-0.2-3.3-0.2c-0.9,0-2,0.1-2.9,0.2c0.3-1.6,0.3-5.7,0.3-7.5
			C90.2,42.2,90.2,37.7,90.1,33.8"/>
		<path class="st0" d="M109.3,37.6l-2.8,7.2c0.9,0.1,1.8,0.1,2.7,0.1c0.9,0,1.9-0.1,2.8-0.1L109.3,37.6z M109.2,30.7
			c0.6,0.1,1.2,0.2,1.7,0.2s1.1-0.1,1.6-0.2c3.1,9.1,6.9,18.4,9,23.2c-1-0.2-2.1-0.2-3.1-0.2c-1.1,0-2.5,0-3.5,0.2
			c-1-3.4-1.7-5.5-2.1-6.5c-1.1,0-2.2-0.1-3.4-0.1c-1.2,0-2.5,0-3.8,0.1c-0.6,1.6-1.4,4.1-2,6.5c-0.6-0.1-1.2-0.2-1.8-0.2
			c-0.3,0-1.1,0-1.9,0.2C101.9,49.6,106.9,37.2,109.2,30.7"/>
	</g>
</g>
</svg>
